<svg class="N5XsSUTV jZikmnpn" tabindex="" xmlns="http://www.w3.org/2000/svg" viewBox="0 0 356 36" aria-label="Envato Elements"><title>Envato Elements</title>
    <path class="AXGjXda4" d="M23.64 7.21C19.45 2.3 5.89 11.82 6 24.07a.579.579 0 0 1-.57.57.58.58 0 0 1-.49-.28 12.998 12.998 0 0 1-1.2-5.47 13.138 13.138 0 0 1 .68-4.18.53.53 0 0 0-.9-.52c-6.828 7.452-3.028 19.502 6.84 21.689.929.206 1.878.31 2.83.311 18.46-.37 14.19-24.6 10.45-28.98z"></path>
    <path class="fRLva5cN" d="M177.45 22.87c.095 7.548-6.125 13.65-13.67 13.41a13.759 13.759 0 0 1-9.7-3.78 13.287 13.287 0 0 1-3.91-9.63c0-7.7 5.73-13.29 13.61-13.29 7.92 0 13.67 5.59 13.67 13.29zm-5.45 0c0-6.13-4.26-8.94-8.22-8.94-3.96 0-8.23 2.79-8.23 8.92 0 4.49 2.82 9 8.23 9 3.97 0 8.22-2.85 8.22-8.98zm-30.15-8.29v13c0 2.77.89 4.06 2.89 4.06a3.91 3.91 0 0 0 1.08-.16c.302-.091.615-.144.93-.16a2 2 0 0 1 2.08 2.08 2.35 2.35 0 0 1-1.44 2.07 8.378 8.378 0 0 1-3.29.59c-4.85 0-7.42-2.8-7.42-8V5.52a2.6 2.6 0 0 1 1.534-2.657c1.831-.809 3.851.667 3.636 2.657v4.75h4.69a2.169 2.169 0 0 1 2.248 1.298c.66 1.535-.589 3.208-2.248 3.012zM133 19.54v13.81a2.35 2.35 0 0 1-2.39 2.65 2.4 2.4 0 0 1-2.45-2.68V32a9.72 9.72 0 0 1-8.47 4.22c-4.59 0-9.22-2.42-9.22-7.84 0-7.53 8.8-8.59 17.45-8.59v-.56c0-3.39-2.21-5.39-6.06-5.39a10.254 10.254 0 0 0-5.86 1.94c-.451.332-.99.524-1.55.55a2 2 0 0 1-2-2.08 2.37 2.37 0 0 1 1.17-2.05 14.831 14.831 0 0 1 8.74-2.62c6.64 0 10.64 3.73 10.64 9.96zm-17.12 8.73c0 3.52 3.82 3.8 5 3.8 4.33 0 7.12-2.84 7.12-7.24v-1.2h-1.14c-4.74 0-11.04.48-10.98 4.64zm-6.13-15.98a3.852 3.852 0 0 1-.32 1.43l-8.26 19.47c-.98 2.33-2.58 2.82-3.76 2.82-1.18 0-2.76-.49-3.76-2.82l-8.2-19.37a3.556 3.556 0 0 1-.33-1.47 2.56 2.56 0 0 1 2.61-2.5 2.76 2.76 0 0 1 2.65 2.08l7.08 18 7.14-18a2.72 2.72 0 0 1 2.6-2.08 2.44 2.44 0 0 1 2.55 2.44zm-26.13 7.62v13.23a2.62 2.62 0 0 1-1.545 2.676c-1.844.816-3.881-.671-3.665-2.676V21.55c0-5.08-1.72-7.55-5.6-7.55s-6.59 3.35-6.59 8.14v11a2.62 2.62 0 0 1-1.503 2.603c-1.828.852-3.893-.594-3.717-2.603V12.61a2.44 2.44 0 0 1 2.48-2.76c.45 0 2.45.13 2.45 2.76v1.7a9.3 9.3 0 0 1 8.19-4.73c6.99 0 9.48 5.34 9.5 10.33zm-25.96.3a9.61 9.61 0 0 1 .11 1.66c0 1.79-.91 2.66-2.77 2.66H37.9a7.9 7.9 0 0 0 8 7.38 8.749 8.749 0 0 0 6.37-2.67 2.587 2.587 0 0 1 1.83-.83 2.14 2.14 0 0 1 2.24 2.19 2.808 2.808 0 0 1-.83 1.88 12.761 12.761 0 0 1-9.61 3.8c-7.9 0-13.34-5.54-13.34-13.3 0-7.76 5.5-13.4 13.08-13.4 6.6 0 11.1 3.98 12.02 10.63zm-19.77.38h14.66c-.16-4.23-2.8-6.85-6.91-6.85a7.64 7.64 0 0 0-7.75 6.85z"></path>
    <path class="nyyfLpAI" d="M355.3 25.53a6.757 6.757 0 0 1 .9 3.57 6.261 6.261 0 0 1-2.68 5.26 10.94 10.94 0 0 1-6.65 1.91 11.659 11.659 0 0 1-7.07-2 6.48 6.48 0 0 1-2.82-5.41.77.77 0 0 1 .76-.77h1.22a.77.77 0 0 1 .77.72 4.251 4.251 0 0 0 1.93 3.42 9.155 9.155 0 0 0 5.21 1.29 7.89 7.89 0 0 0 4.84-1.37 3.708 3.708 0 0 0 1.74-3.06c0-2.57-2.32-4.29-7-5.29-3.2-.66-5.38-1.55-6.68-2.66a5.998 5.998 0 0 1-2.05-4.76 6.118 6.118 0 0 1 2.57-5 10.245 10.245 0 0 1 6.36-1.89 10.744 10.744 0 0 1 6.81 2 6.88 6.88 0 0 1 2.68 5.68.77.77 0 0 1-.77.77h-1.24a.76.76 0 0 1-.77-.77 4.271 4.271 0 0 0-1.78-3.5 7.758 7.758 0 0 0-4.93-1.48 7.578 7.578 0 0 0-4.61 1.25 3.441 3.441 0 0 0-1.56 2.87c-.05.746.139 1.489.54 2.12a5.37 5.37 0 0 0 2 1.46 22.256 22.256 0 0 0 4.43 1.4 20.61 20.61 0 0 1 5 1.71 7.378 7.378 0 0 1 2.84 2.56zm-20.14 8.44l.2 1.15a.77.77 0 0 1-.49.86 9.004 9.004 0 0 1-2.81.32 5.268 5.268 0 0 1-4.42-1.78 8.32 8.32 0 0 1-1.33-5.12V12.68h-3.74a.77.77 0 0 1-.77-.76V10.7a.77.77 0 0 1 .77-.77h3.74V4.12a.77.77 0 0 1 .77-.77h1.24a.78.78 0 0 1 .77.77v5.81h4.77a.77.77 0 0 1 .77.77v1.22a.77.77 0 0 1-.77.76h-4.77v16.56a6.29 6.29 0 0 0 .71 3.4c.65.96 2.04 1.06 4.49.71a.77.77 0 0 1 .87.62zM310.59 9.66c2.83 0 5.01.87 6.4 2.49 1.39 1.62 2.12 4.04 2.12 7.2v15.91a.78.78 0 0 1-.77.77h-1.22a.77.77 0 0 1-.77-.77V19.34c-.01-2.41-.53-4.24-1.42-5.3-.89-1.06-2.41-1.6-4.41-1.6a6.787 6.787 0 0 0-4.93 2 10.6 10.6 0 0 0-2.89 5.31v15.51a.77.77 0 0 1-.77.77h-1.21a.77.77 0 0 1-.77-.77V10.88a.77.77 0 0 1 .77-.77h1.21a.77.77 0 0 1 .77.77v2.8a10.81 10.81 0 0 1 2.3-2.23 9.494 9.494 0 0 1 5.58-1.79zm-16.88 2.98a11.854 11.854 0 0 1 2.79 8.15v1.27a.78.78 0 0 1-.77.77h-17.5v.55a11.501 11.501 0 0 0 1.17 5.16 9.128 9.128 0 0 0 3.18 3.67 7.812 7.812 0 0 0 4.34 1.31 8.997 8.997 0 0 0 3.85-.74 7.791 7.791 0 0 0 2.78-2.3.77.77 0 0 1 1.05-.15l.85.61a.76.76 0 0 1 .19 1.06 10 10 0 0 1-8.74 4.29 10.616 10.616 0 0 1-5.83-1.71 11.697 11.697 0 0 1-4.14-4.66 14.341 14.341 0 0 1-1.48-6.5v-1a14.9 14.9 0 0 1 1.43-6.53 11.51 11.51 0 0 1 4-4.7 9.87 9.87 0 0 1 5.59-1.71 9.3 9.3 0 0 1 7.24 3.16zm.08 7.44a9.553 9.553 0 0 0-1-3.79 7.475 7.475 0 0 0-2.61-3 6.653 6.653 0 0 0-3.7-1.06 7.17 7.17 0 0 0-5.48 2.41 10.338 10.338 0 0 0-2.6 5.45zM263.54 9.71c2.84 0 5.05.86 6.45 2.49 1.4 1.63 2.13 4.04 2.13 7.19V35.3a.76.76 0 0 1-.77.77h-1.21a.76.76 0 0 1-.77-.77V19.5c0-2.44-.5-4.34-1.43-5.44-.93-1.1-2.37-1.6-4.46-1.6a7.698 7.698 0 0 0-6.43 3.23 6.791 6.791 0 0 0-1.47 3.46V35.3a.76.76 0 0 1-.76.77h-1.22a.76.76 0 0 1-.77-.77V18.99a7.377 7.377 0 0 0-1.42-5c-.9-1.02-2.41-1.53-4.48-1.53a7 7 0 0 0-5.93 3.21 11.202 11.202 0 0 0-1.86 4.33v15.3a.77.77 0 0 1-.77.77h-1.24a.76.76 0 0 1-.77-.77V10.92a.76.76 0 0 1 .77-.76h1.24a.77.77 0 0 1 .77.76v2.87a10.085 10.085 0 0 1 2.32-2.29 10.14 10.14 0 0 1 11-.28 6.509 6.509 0 0 1 2.32 3 9.914 9.914 0 0 1 2.9-2.83 10.648 10.648 0 0 1 5.87-1.68zm-33.35 2.93a11.854 11.854 0 0 1 2.79 8.15v1.27a.77.77 0 0 1-.77.77h-17.5v.55a11.472 11.472 0 0 0 1.17 5.16 9.128 9.128 0 0 0 3.18 3.67 7.812 7.812 0 0 0 4.34 1.31 8.997 8.997 0 0 0 3.85-.74 7.706 7.706 0 0 0 2.78-2.3.77.77 0 0 1 1.05-.15l.86.61a.77.77 0 0 1 .18 1.06 10 10 0 0 1-8.67 4.29 10.616 10.616 0 0 1-5.83-1.71 11.697 11.697 0 0 1-4.14-4.66 14.341 14.341 0 0 1-1.48-6.5v-1a14.908 14.908 0 0 1 1.41-6.53 11.51 11.51 0 0 1 4-4.7A9.87 9.87 0 0 1 223 9.48a9.278 9.278 0 0 1 7.19 3.16zm.12 7.44a9.553 9.553 0 0 0-1-3.79 7.405 7.405 0 0 0-2.61-3 6.653 6.653 0 0 0-3.7-1.06 7.17 7.17 0 0 0-5.48 2.41 10.265 10.265 0 0 0-2.58 5.45zM208.77.77v34.61a.76.76 0 0 1-.77.76h-1.21a.76.76 0 0 1-.77-.76V.77a.76.76 0 0 1 .77-.77H208a.76.76 0 0 1 .77.77zm-16.008 8.71A9.303 9.303 0 0 1 200 12.64a11.85 11.85 0 0 1 2.77 8.15v1.27a.78.78 0 0 1-.77.77h-17.42v.55a11.507 11.507 0 0 0 1.18 5.16 9.002 9.002 0 0 0 3.18 3.67 7.812 7.812 0 0 0 4.34 1.31 9.045 9.045 0 0 0 3.85-.74 7.676 7.676 0 0 0 2.77-2.3.78.78 0 0 1 1.06-.15l.85.61A.76.76 0 0 1 202 32a10.001 10.001 0 0 1-8.79 4.29c-2.071.008-4.1-.586-5.84-1.71a11.757 11.757 0 0 1-4.13-4.66 14.341 14.341 0 0 1-1.48-6.5v-1a14.9 14.9 0 0 1 1.43-6.53 11.44 11.44 0 0 1 4-4.7 9.87 9.87 0 0 1 5.572-1.71zm7.318 10.6a9.392 9.392 0 0 0-1-3.79 7.329 7.329 0 0 0-2.61-3 6.71 6.71 0 0 0-3.69-1.06 7.158 7.158 0 0 0-5.48 2.41 10.338 10.338 0 0 0-2.59 5.45z"></path>
</svg>